<?xml version="1.0" encoding="utf-8"?>
<!-- Generator: Adobe Illustrator 19.2.1, SVG Export Plug-In . SVG Version: 6.00 Build 0)  -->
<svg version="1.1" id="layer" xmlns="http://www.w3.org/2000/svg" xmlns:xlink="http://www.w3.org/1999/xlink" x="0px" y="0px"
	 viewBox="0 0 652 652" style="enable-background:new 0 0 652 652;" xml:space="preserve">
<style type="text/css">
	.st0{fill:#161718;}
</style>
<path id="Shape" class="st0" d="M607.3,281.8c2,0,3.9,0,5.9,0c5.3,0,5.7,0.7,3.8,5.4c-3.2,7.8-6.3,15.5-9.5,23.3
	c-7.2,17.4-14.3,34.9-21.5,52.3c-1.7,4-3.5,7.9-6,11.5c-5.1,7.3-11.8,11.2-21,11.1c-5.2-0.1-10.2-0.9-15-2.8c-3.1-1.2-4.4-2-2.5-5.6
	c0.8-1.5,1.2-3,1.9-4.5c1.8-4,2-4,6.1-2.6c1.8,0.7,3.7,1.3,5.6,1.6c6,0.9,10.5-1.2,13.7-6.5c2.1-3.4,2.7-6.4,0.8-10.4
	c-10.2-21.7-20.1-43.5-30.2-65.2c-0.6-1.4-1.3-2.7-1.8-4.1c-0.8-2.1-0.2-3.2,2-3.4c1.9-0.2,3.9,0,5.9,0c8.9,0,7-0.9,10.4,6.8
	c6.8,15.4,13.6,30.9,20.4,46.3l1.4,2.9c0,0,0.4,0.9,1,0.9c0.6,0,1.4,0.1,2-1c0.2-0.4,0.5-1.1,0.8-1.7c0.1-0.3,0.1-0.5,0.2-0.7
	c6.5-16.4,12.8-32.9,19.2-49.3C602.7,281.8,602.7,281.9,607.3,281.8z M497.2,312.3c5.4,1.9,11,3.1,16.3,5.3
	c4.2,1.8,8.1,3.9,11.3,7.2c7.8,8,6.4,22.8-1.9,30.4c-5.2,4.7-11.4,7.1-18.4,7.6c-11.3,0.7-21.8-1.9-31.5-7.8
	c-6.8-4.1-6.9-4.5-2.4-10.7c3.1-4.2,2.7-6,9.1-1.7c7.3,4.9,15.4,7.3,24.4,6.5c3.3-0.3,6.2-1.3,8.5-3.7c3.8-4,3.3-9.2-1.2-12.4
	c-3.1-2.2-6.8-3.2-10.4-4.3c-3.3-1.1-6.6-1.9-10-2.9c-3.5-1.1-6.7-2.6-9.9-4.3c-13.4-7.4-12.7-23.7-4.6-32.3c5-5.3,11.2-8,18.4-8.4
	c1.5-0.1,3,0,4.5,0c9.3-0.3,17.8,2.6,25.8,7c3.3,1.8,3.5,2.8,1.6,6.1c-1,1.8-2.2,3.6-3.3,5.4c-1,1.7-2.5,2-4.3,1.2
	c-1-0.4-1.9-1-2.8-1.5c-5.2-2.9-10.8-4.6-16.7-5.1c-3.4-0.3-6.9,0.4-10,2.3c-5.2,3.2-5.3,9-0.4,12.5
	C491.8,310.4,494.5,311.4,497.2,312.3z M426.2,314.4c-2.1,2.2-2.1,2.4-0.2,4.9c9.3,12.2,18.6,24.3,27.9,36.5c1,1.4,3,2.6,2,4.6
	c-0.9,2-3.1,1.5-4.8,1.5c-2.4,0-4.8-0.1-7.2,0c-2.7,0.2-4.5-0.8-6.1-2.9c-6.4-8.5-13-16.9-19.5-25.3c-5.3-6.8-4.5-6.4-8.6-2.6
	c-2.8,2.7-6.2,6.3-7.5,8.1c-0.5,1-1,1.9-1.3,3c-0.7,2.8-0.5,5.8-0.5,5.8v3.8c0.1,1.6,0.1,3.2,0,4.8c0,0.5,0,1-0.1,1.5
	c-0.1,2.9-1,3.7-3.8,3.9c-2.7,0.1-5.4,0.1-8.1,0c-3-0.1-3.5-0.7-3.6-3.9c-0.1-7.6,0-15.3,0-22.9c0-9.7,0-19.5,0-29.2
	c0-16.3,0-32.6,0-48.9c0-1.2,0-2.4,0-3.6c0-1.9,1-2.8,2.7-2.9c3.2-0.1,6.3-0.2,9.5,0c2.2,0.1,3.1,1.1,3.3,3.4c0.1,1,0,2.1,0,3.1
	c0,19.3,0,38.6,0,57.9v3.7c0.2,0.3,0.5,0.5,0.9,0.7c1.4,0.5,2.4-1.5,3.4-2.6c10.4-10.8,20.9-21.6,31.2-32.5c1.7-1.8,3.4-2.7,5.9-2.5
	c3.3,0.2,6.6,0.1,10,0c1.4,0,2.8,0.1,3.4,1.6c0.6,1.5-0.7,2.2-1.5,3c-5.8,5.9-11.6,11.8-17.4,17.6
	C432.9,307.5,429.6,310.9,426.2,314.4z M286.1,321.8c0-22.2,16.6-41.5,41.9-41.5c26.4,0,42.5,21.3,41.6,41.7
	c0.6,19.6-14.2,41.4-41.8,41.5C302.4,363.5,286.1,344.3,286.1,321.8z M354,322.2c0.7-13.2-10.3-29.2-28.1-27.8
	c-9,0.7-15.7,4.9-20.2,12.4c-4,6.8-5.1,14.3-3.1,22.1c4.5,17.7,23,25.1,37.5,17.3C349.7,341.1,353.6,332.6,354,322.2z M189,321.8
	c0-20.8,15.7-41.6,41.9-41.6c26,0,42.1,20.3,41.7,41.6c0.1,21.8-16.1,41.8-42.3,41.6C204.4,363.3,189,342.9,189,321.8z M250.1,340.8
	c8.3-9.5,9.3-23.7,2.6-34.3c-5-7.9-12.2-12.2-23.1-12.1c-5.3-0.3-11,2-16,6.4c-10.9,9.7-12,28-2.1,39.5
	C222.5,353,240.7,351.6,250.1,340.8z M117.1,283.7c6.1-3.6,12.9-5.5,19.8-5.2c14.6,0.6,26.2,7.2,33.9,19.9c4.5,7.5,6.1,15.7,6,24.5
	c-0.1,9.8-2.9,18.6-9.3,26.1c-8,9.4-18.3,14-30.7,15c-18.3,1.5-33.1-5.9-47.1-16.3c-6.9-5.1-13.8-10.1-21.1-14.7
	c-3.2-2-6.6-3.6-10.3-4.5c-8.2-2.2-16.2,1-20.6,8.2c-0.4,0.6-0.8,1.3-1.1,2c-0.9,2-2.4,2.9-4.7,2.8c-3.3-0.1-6.6,0-10,0
	c-3.9-0.1-4.9-1.5-3.4-5.1c5.2-12.1,14.4-19.8,27.3-22.7c12-2.7,23-0.3,32.9,6.9c5.8,4.3,11.5,8.7,17.4,12.9
	c8,5.6,16.2,11.1,25.8,13.7c10.1,2.8,20,2.4,28.9-4c5.2-3.8,8.7-8.7,9.7-15.1c1.3-8.5,0.4-16.7-5-23.9c-10.2-13.6-30-12.9-39.3,1.4
	c-2.6,4.1-4.3,8.5-4,13.5c0.1,2.1,0.1,4.2-0.1,6.3c-0.2,2.4-1.7,3.4-3.7,2.3c-3.7-1.9-7.2-4.3-10.5-6.9c-1.7-1.3-1.4-3.2-1.4-5
	c0-10.3,0-20.7,0-31c0-10.3,0-20.7,0-31c0-4.7,0.3-5,5.2-5c1.5,0,3,0,4.5,0c5.1,0.1,5.9,0.8,5.9,6.1c0,6.9,0,13.8,0,20.7
	c0,1.8,0,3.6,0,5.4C112.4,286.4,112.4,286.4,117.1,283.7z"/>
</svg>
