<svg xmlns="http://www.w3.org/2000/svg" width="76.837" height="76.837" viewBox="0 0 76.837 76.837">
  <path id="iconmonstr-instagram-11" d="M38.418,6.925c10.258,0,11.474.038,15.527.224C64.357,7.623,69.22,12.563,69.694,22.9c.186,4.05.221,5.267.221,15.524s-.038,11.474-.221,15.524c-.477,10.325-5.327,15.275-15.748,15.748-4.053.186-5.263.224-15.527.224s-11.474-.038-15.524-.224C12.457,69.217,7.62,64.255,7.146,53.943c-.186-4.05-.224-5.263-.224-15.524s.042-11.471.224-15.524C7.623,12.563,12.473,7.62,22.894,7.146c4.053-.182,5.267-.221,15.524-.221Zm0-6.925C27.985,0,26.678.045,22.58.231,8.628.871.874,8.612.234,22.577.045,26.678,0,27.985,0,38.418S.045,50.162.231,54.26c.64,13.952,8.382,21.706,22.347,22.347,4.1.186,5.407.231,15.841.231s11.743-.045,15.841-.231C68.2,75.966,75.973,68.225,76.6,54.26c.189-4.1.234-5.407.234-15.841s-.045-11.74-.231-15.838C75.979,8.641,68.228.874,54.263.234,50.162.045,48.852,0,38.418,0Zm0,18.691A19.729,19.729,0,1,0,58.146,38.418,19.729,19.729,0,0,0,38.418,18.691Zm0,32.534A12.806,12.806,0,1,1,51.225,38.418,12.8,12.8,0,0,1,38.418,51.225ZM58.928,13.3a4.61,4.61,0,1,0,4.607,4.61A4.612,4.612,0,0,0,58.928,13.3Z" fill="#fff"/>
</svg>
